<svg id="flat" height="512" viewBox="0 0 512 512" width="512" xmlns="http://www.w3.org/2000/svg"><path d="m152 200.868v-56.868h-48v56.868a14.838 14.838 0 0 1 -5.569 11.587l-28.862 23.09a14.838 14.838 0 0 0 -5.569 11.587v152.868h128v-152.868a14.838 14.838 0 0 0 -5.569-11.587l-28.862-23.09a14.838 14.838 0 0 1 -5.569-11.587z" fill="#365902"/><path d="m80 255.132a14.838 14.838 0 0 1 5.569-11.587l28.862-23.09a14.838 14.838 0 0 0 5.569-11.587v-64.868h-16v56.868a14.838 14.838 0 0 1 -5.569 11.587l-28.862 23.09a14.838 14.838 0 0 0 -5.569 11.587v152.868h16z" fill="#83a603"/><path d="m416 216a58.978 58.978 0 0 0 6.879-51.364l-6.879-20.636v-32h-48v32l-6.879 20.636a58.978 58.978 0 0 0 6.879 51.364l-38.731 19.57a16.881 16.881 0 0 0 -9.269 15.068v148.733a16.882 16.882 0 0 0 16.882 16.882h110.236a16.882 16.882 0 0 0 16.882-16.882v-148.733a16.881 16.881 0 0 0 -9.269-15.068z" fill="#d98218"/><path d="m454.731 235.57-38.731-19.57a58.978 58.978 0 0 0 6.879-51.364l-6.879-20.636v-32h-16v32l6.879 20.636a58.978 58.978 0 0 1 -6.879 51.364l38.731 19.57a16.881 16.881 0 0 1 9.269 15.068v148.733a16.882 16.882 0 0 1 -16.882 16.882h16a16.882 16.882 0 0 0 16.882-16.882v-148.733a16.881 16.881 0 0 0 -9.269-15.068z" fill="#bf6b04"/><path d="m336 399.371v-148.733a16.881 16.881 0 0 1 9.269-15.068l38.731-19.57a58.978 58.978 0 0 1 -6.879-51.364l6.879-20.636v-32h-16v32l-6.879 20.636a58.978 58.978 0 0 0 6.879 51.364l-38.731 19.57a16.881 16.881 0 0 0 -9.269 15.068v148.733a16.882 16.882 0 0 0 16.882 16.882h16a16.882 16.882 0 0 1 -16.882-16.882z" fill="#f2b705"/><path d="m422.879 164.636-6.879-20.636v-32h-48v32l-6.879 20.636a58.944 58.944 0 0 0 -2.36 27.364h66.478a58.944 58.944 0 0 0 -2.36-27.364z" fill="#48485e"/><path d="m422.879 164.636-6.879-20.636v-32h-25.892v32l6.879 20.636a58.932 58.932 0 0 1 2.361 27.364h25.891a58.944 58.944 0 0 0 -2.36-27.364z" fill="#2f2f3f"/><path d="m280 136.868v-24.868h-48v24.868a14.838 14.838 0 0 1 -5.569 11.587l-28.862 23.09a14.838 14.838 0 0 0 -5.569 11.587v218.03a14.838 14.838 0 0 0 14.838 14.838h98.324a14.838 14.838 0 0 0 14.838-14.838v-218.03a14.838 14.838 0 0 0 -5.569-11.587l-28.862-23.09a14.838 14.838 0 0 1 -5.569-11.587z" fill="#5c190c"/><path d="m208 409.162v-218.03a14.838 14.838 0 0 1 5.569-11.587l28.862-23.09a14.838 14.838 0 0 0 5.569-11.587v-24.868h32v-8h-48v24.868a14.838 14.838 0 0 1 -5.569 11.587l-28.862 23.09a14.838 14.838 0 0 0 -5.569 11.587v218.03a14.838 14.838 0 0 0 14.838 14.838h2.84a14.763 14.763 0 0 1 -1.678-6.838z" fill="#873c1e"/><path d="m186.431 235.545-28.862-23.09a14.838 14.838 0 0 1 -5.569-11.587v-64.868h-48v16h32v56.868a14.838 14.838 0 0 0 5.569 11.587l28.862 23.09a14.838 14.838 0 0 1 5.569 11.587v144.868h16v-152.868a14.838 14.838 0 0 0 -5.569-11.587z" fill="#1b4001"/><path d="m360 88h64v48h-64z" fill="#48485e"/><path d="m400 88h24v48h-24z" fill="#2f2f3f"/><path d="m224 24h64v96h-64z" fill="#f2b705"/><path d="m264 24h24v96h-24z" fill="#bf6b04"/><path d="m96 112h64v32h-64z" fill="#a9bfd1"/><path d="m128 112h32v32h-32z" fill="#8da3b2"/><path d="m24 392h464v96h-464z" fill="#ffd884"/><path d="m416 392a64 64 0 0 1 -64 64h-328v32h464v-96z" fill="#ffbf41"/><g fill="#8c5511"><path d="m48 416h16v16h-16z"/><path d="m48 448h16v16h-16z"/><path d="m448 416h16v16h-16z"/><path d="m448 448h16v16h-16z"/></g><path d="m208 208 16 24a71.556 71.556 0 0 1 64 0l16-24a86.532 86.532 0 0 0 -96 0z" fill="#f2b705"/><path d="m224 56h64v32h-64z" fill="#5c190c"/><path d="m320 256h144v120h-144z" fill="#48485e"/><path d="m80 256h96v120h-96z" fill="#f2f2f2"/><path d="m24 264h464v96h-464z" fill="#ffd884"/><path d="m424 264a64 64 0 0 1 -64 64h-336v32h464v-96z" fill="#ffbf41"/><path d="m48 288h16v16h-16z" fill="#8c5511"/><path d="m48 320h16v16h-16z" fill="#8c5511"/><path d="m448 288h16v16h-16z" fill="#8c5511"/><path d="m448 320h16v16h-16z" fill="#8c5511"/></svg>